<svg width="22" height="20" viewBox="0 0 22 20" fill="none" xmlns="http://www.w3.org/2000/svg">
<path d="M20.9691 1L21.7175 0.950385C21.6975 0.649527 21.4994 0.389867 21.2144 0.29125C20.9295 0.192633 20.6132 0.274236 20.4116 0.498395L20.9691 1ZM20.2928 5.22701C20.2928 4.81279 19.957 4.47701 19.5428 4.47701C19.1286 4.47701 18.7928 4.81279 18.7928 5.22701H20.2928ZM11 6.5V7.25H11.75V6.5H11ZM2.42637 1L3.12875 0.737014C3.0241 0.45751 2.76368 0.266656 2.46564 0.251029C2.16759 0.235402 1.88865 0.397977 1.75534 0.665004L2.42637 1ZM8 14L8.53074 14.5299C8.71428 14.3461 8.78963 14.0804 8.72991 13.8276C8.67019 13.5748 8.4839 13.3709 8.2375 13.2886L8 14ZM1 16.7143V15.9643C0.669598 15.9643 0.378116 16.1805 0.282258 16.4967C0.186401 16.8129 0.30875 17.1546 0.58353 17.338L1 16.7143ZM18.4515 2.39054L17.8952 2.89356L18.1654 3.19242L18.5638 3.13209L18.4515 2.39054ZM20.2208 1.04962C20.2943 2.15897 20.2259 2.82787 20.0481 3.32885C19.876 3.81416 19.5753 4.21579 19.0239 4.7442L20.0617 5.82723C20.6889 5.2262 21.1774 4.63201 21.4618 3.83034C21.7407 3.04435 21.796 2.13512 21.7175 0.950385L20.2208 1.04962ZM20.2928 6.26785V5.28571H18.7928V6.26785H20.2928ZM20.2928 5.28571V5.22701H18.7928V5.28571H20.2928ZM10.25 5.5V6.5H11.75V5.5H10.25ZM15.3223 0.25C12.4742 0.25 10.25 2.72565 10.25 5.5H11.75C11.75 3.47563 13.379 1.75 15.3223 1.75V0.25ZM18.7928 6.26785C18.7928 12.4268 13.6194 17.75 7.5 17.75V19.25C14.4771 19.25 20.2928 13.2257 20.2928 6.26785H18.7928ZM1.72399 1.26299C2.5148 3.37507 5.46988 7.25 11 7.25V5.75C6.26028 5.75 3.76431 2.43445 3.12875 0.737014L1.72399 1.26299ZM1.75534 0.665004C0.258323 3.66367 -0.00797837 6.61001 1.0444 9.12846C2.0968 11.6469 4.40667 13.5911 7.7625 14.7114L8.2375 13.2886C5.17468 12.2661 3.27137 10.5673 2.42843 8.55012C1.58547 6.53284 1.74168 4.05062 3.09739 1.335L1.75534 0.665004ZM7.46926 13.4701C6.62515 14.3155 4.18083 15.9643 1 15.9643V17.4643C4.66573 17.4643 7.47306 15.5893 8.53074 14.5299L7.46926 13.4701ZM19.0078 1.88753C18.0995 0.883012 16.7843 0.25 15.3223 0.25V1.75C16.3423 1.75 17.259 2.18997 17.8952 2.89356L19.0078 1.88753ZM18.5638 3.13209C19.6588 2.96625 20.7262 2.39147 21.5267 1.5016L20.4116 0.498395C19.8342 1.14017 19.0774 1.53719 18.3392 1.649L18.5638 3.13209ZM0.58353 17.338C2.88546 18.875 5.10213 19.25 7.5 19.25V17.75C5.28813 17.75 3.39364 17.4107 1.41647 16.0905L0.58353 17.338Z" fill="white"/>
</svg>
