<svg width="26" height="27" viewBox="0 0 26 27" fill="none" xmlns="http://www.w3.org/2000/svg">
<path d="M12.8882 1L13.5835 0.281276C13.1958 -0.0937585 12.5806 -0.0937585 12.1929 0.281276L12.8882 1ZM15.9784 3.98944L15.2831 4.70816C15.5048 4.92262 15.813 5.02278 16.1184 4.97958L15.9784 3.98944ZM20.2355 3.38729L21.2205 3.21451C21.1273 2.68324 20.6295 2.3216 20.0955 2.39714L20.2355 3.38729ZM20.9784 7.62215L19.9934 7.79492C20.0467 8.09873 20.2372 8.36094 20.5097 8.50551L20.9784 7.62215ZM24.7764 9.63729L25.6748 10.0765C25.9117 9.59186 25.7216 9.00673 25.2451 8.75392L24.7764 9.63729ZM22.8882 13.5L21.9898 13.0608C21.8543 13.3379 21.8543 13.6621 21.9898 13.9392L22.8882 13.5ZM24.7764 17.3627L25.2451 18.2461C25.7216 17.9933 25.9117 17.4081 25.6748 16.9235L24.7764 17.3627ZM20.9784 19.3779L20.5097 18.4945C20.2372 18.6391 20.0467 18.9013 19.9934 19.2051L20.9784 19.3779ZM20.2355 23.6127L20.0955 24.6029C20.6295 24.6784 21.1273 24.3168 21.2205 23.7855L20.2355 23.6127ZM15.9784 23.0106L16.1184 22.0204C15.813 21.9772 15.5048 22.0774 15.2831 22.2918L15.9784 23.0106ZM12.8882 26L12.1929 26.7187C12.5806 27.0938 13.1958 27.0938 13.5835 26.7187L12.8882 26ZM9.79804 23.0106L10.4933 22.2918C10.2716 22.0774 9.96339 21.9772 9.65799 22.0204L9.79804 23.0106ZM5.54089 23.6127L4.55593 23.7855C4.64912 24.3168 5.14687 24.6784 5.68094 24.6029L5.54089 23.6127ZM4.79804 19.3779L5.783 19.2051C5.72971 18.9013 5.5392 18.6391 5.26673 18.4945L4.79804 19.3779ZM1 17.3627L0.101594 16.9235C-0.135287 17.4081 0.0548347 17.9933 0.53131 18.2461L1 17.3627ZM2.88821 13.5L3.78661 13.9392C3.92207 13.6621 3.92207 13.3379 3.78661 13.0608L2.88821 13.5ZM1 9.63729L0.53131 8.75392C0.0548347 9.00673 -0.135287 9.59186 0.101594 10.0765L1 9.63729ZM4.79804 7.62215L5.26673 8.50551C5.5392 8.36094 5.72971 8.09873 5.783 7.79492L4.79804 7.62215ZM5.54089 3.38729L5.68094 2.39714C5.14687 2.3216 4.64912 2.68324 4.55593 3.21451L5.54089 3.38729ZM9.79804 3.98944L9.65799 4.97958C9.96339 5.02278 10.2716 4.92262 10.4933 4.70816L9.79804 3.98944ZM9.42865 14.1818C9.03812 13.7913 8.40496 13.7913 8.01443 14.1818C7.62391 14.5723 7.62391 15.2055 8.01443 15.596L9.42865 14.1818ZM11.4993 17.6667L10.7922 18.3738C10.9933 18.5749 11.2706 18.6809 11.5546 18.6651C11.8386 18.6494 12.1025 18.5135 12.2802 18.2914L11.4993 17.6667ZM17.8357 11.3469C18.1808 10.9157 18.1108 10.2864 17.6796 9.94135C17.2483 9.59634 16.619 9.66626 16.274 10.0975L17.8357 11.3469ZM12.1929 1.71872L15.2831 4.70816L16.6737 3.27071L13.5835 0.281276L12.1929 1.71872ZM16.1184 4.97958L20.3756 4.37743L20.0955 2.39714L15.8383 2.99929L16.1184 4.97958ZM19.2506 3.56006L19.9934 7.79492L21.9633 7.44937L21.2205 3.21451L19.2506 3.56006ZM20.5097 8.50551L24.3077 10.5207L25.2451 8.75392L21.4471 6.73878L20.5097 8.50551ZM23.878 9.19812L21.9898 13.0608L23.7866 13.9392L25.6748 10.0765L23.878 9.19812ZM21.9898 13.9392L23.878 17.8019L25.6748 16.9235L23.7866 13.0608L21.9898 13.9392ZM24.3077 16.4793L20.5097 18.4945L21.4471 20.2612L25.2451 18.2461L24.3077 16.4793ZM19.9934 19.2051L19.2506 23.4399L21.2205 23.7855L21.9633 19.5506L19.9934 19.2051ZM20.3756 22.6226L16.1184 22.0204L15.8383 24.0007L20.0955 24.6029L20.3756 22.6226ZM15.2831 22.2918L12.1929 25.2813L13.5835 26.7187L16.6737 23.7293L15.2831 22.2918ZM13.5835 25.2813L10.4933 22.2918L9.10274 23.7293L12.1929 26.7187L13.5835 25.2813ZM9.65799 22.0204L5.40084 22.6226L5.68094 24.6029L9.93809 24.0007L9.65799 22.0204ZM6.52585 23.4399L5.783 19.2051L3.81308 19.5506L4.55593 23.7855L6.52585 23.4399ZM5.26673 18.4945L1.46869 16.4793L0.53131 18.2461L4.32935 20.2612L5.26673 18.4945ZM1.89841 17.8019L3.78661 13.9392L1.9898 13.0608L0.101594 16.9235L1.89841 17.8019ZM3.78661 13.0608L1.89841 9.19812L0.101594 10.0765L1.9898 13.9392L3.78661 13.0608ZM1.46869 10.5207L5.26673 8.50551L4.32935 6.73878L0.53131 8.75392L1.46869 10.5207ZM5.783 7.79492L6.52585 3.56006L4.55593 3.21451L3.81308 7.44937L5.783 7.79492ZM5.40084 4.37743L9.65799 4.97958L9.93809 2.99929L5.68094 2.39714L5.40084 4.37743ZM10.4933 4.70816L13.5835 1.71872L12.1929 0.281276L9.10274 3.27071L10.4933 4.70816ZM8.01443 15.596L10.7922 18.3738L12.2064 16.9596L9.42865 14.1818L8.01443 15.596ZM12.2802 18.2914L17.8357 11.3469L16.274 10.0975L10.7185 17.042L12.2802 18.2914Z" fill="white"/>
</svg>
