<svg width="37" height="27" viewBox="0 0 37 27" fill="none" xmlns="http://www.w3.org/2000/svg">
<path d="M25.8886 18.6386C26.8326 18.3523 27.9403 18.1875 29.125 18.1875C32.5768 18.1875 35.375 19.5866 35.375 21.3125C35.375 23.0384 32.5768 24.4375 29.125 24.4375C27.9403 24.4375 26.8326 24.2727 25.8886 23.9864M25.8886 18.6386C24.1952 17.4216 21.3774 16.625 18.1875 16.625C14.9976 16.625 12.1798 17.4216 10.4864 18.6386M25.8886 18.6386C26.9438 19.397 27.5625 20.3186 27.5625 21.3125C27.5625 22.3064 26.9438 23.228 25.8886 23.9864M25.8886 23.9864C24.1952 25.2034 21.3774 26 18.1875 26C14.9976 26 12.1798 25.2034 10.4864 23.9864M10.4864 18.6386C9.5424 18.3523 8.43469 18.1875 7.25 18.1875C3.79822 18.1875 1 19.5866 1 21.3125C1 23.0384 3.79822 24.4375 7.25 24.4375C8.43469 24.4375 9.5424 24.2727 10.4864 23.9864M10.4864 18.6386C9.43115 19.397 8.8125 20.3186 8.8125 21.3125C8.8125 22.3064 9.43115 23.228 10.4864 23.9864M22.875 5.6875C22.875 8.27633 20.7763 10.375 18.1875 10.375C15.5987 10.375 13.5 8.27633 13.5 5.6875C13.5 3.09867 15.5987 1 18.1875 1C20.7763 1 22.875 3.09867 22.875 5.6875ZM32.25 10.375C32.25 12.1009 30.8509 13.5 29.125 13.5C27.3991 13.5 26 12.1009 26 10.375C26 8.64911 27.3991 7.25 29.125 7.25C30.8509 7.25 32.25 8.64911 32.25 10.375ZM10.375 10.375C10.375 12.1009 8.97589 13.5 7.25 13.5C5.52411 13.5 4.125 12.1009 4.125 10.375C4.125 8.64911 5.52411 7.25 7.25 7.25C8.97589 7.25 10.375 8.64911 10.375 10.375Z" stroke="white" stroke-width="2"/>
</svg>
