<svg width="32" height="27" viewBox="0 0 32 27" fill="none" xmlns="http://www.w3.org/2000/svg">
<path d="M23.3332 9.3333C23.3332 9.88558 23.7809 10.3333 24.3332 10.3333C24.8855 10.3333 25.3332 9.88558 25.3332 9.3333H23.3332ZM26.9594 3.37378C27.3499 3.7643 27.9831 3.7643 28.3736 3.37378C28.7641 2.98326 28.7641 2.35009 28.3736 1.95957L26.9594 3.37378ZM15.9999 0C15.4476 0 14.9999 0.447715 14.9999 1C14.9999 1.55228 15.4476 2 15.9999 2V0ZM13.3333 5.99997C13.3333 6.55225 13.781 6.99997 14.3333 6.99997C14.8855 6.99997 15.3333 6.55225 15.3333 5.99997H13.3333ZM27.6665 25.3496L27.9136 26.3186L27.6665 25.3496ZM22.6665 17.6666L22.1326 18.5121L22.1326 18.5121L22.6665 17.6666ZM9.33328 17.6666L9.86722 18.5121L9.86722 18.5121L9.33328 17.6666ZM1.35082 23.3967C0.833632 23.203 0.257306 23.4652 0.0635556 23.9824C-0.130195 24.4996 0.132 25.0759 0.649184 25.2696L1.35082 23.3967ZM8.49995 25.9998L8.5063 26.9998L8.5063 26.9998L8.49995 25.9998ZM31.3436 25.2722C31.8622 25.0824 32.1287 24.5081 31.9389 23.9894C31.749 23.4708 31.1747 23.2043 30.6561 23.3941L31.3436 25.2722ZM17.1571 24.7233L17.4608 23.7706L17.4608 23.7706L17.1571 24.7233ZM14.8432 24.7234L15.1467 25.6762L15.1467 25.6762L14.8432 24.7234ZM20.2928 5.04043C21.1392 5.88684 21.9175 6.66795 22.4915 7.43331C23.0734 8.20919 23.3332 8.82626 23.3332 9.3333H25.3332C25.3332 8.17366 24.7596 7.12408 24.0915 6.23331C23.4156 5.33202 22.5272 4.44648 21.707 3.62622L20.2928 5.04043ZM21.707 5.04044C22.4436 4.30379 23.5633 3.56072 24.6494 3.19869C25.7732 2.82408 26.532 2.94638 26.9594 3.37378L28.3736 1.95957C27.1343 0.720295 25.3931 0.842594 24.017 1.30132C22.6031 1.77263 21.2228 2.69622 20.2928 3.62622L21.707 5.04044ZM21.707 3.62622C20.8867 2.80596 20.0012 1.91763 19.0999 1.24166C18.2091 0.573578 17.1595 0 15.9999 0V2C16.5069 2 17.124 2.25975 17.8999 2.84166C18.6653 3.41569 19.4464 4.19403 20.2928 5.04043L21.707 3.62622ZM20.9999 3.33333C20.1754 3.33333 18.4395 3.3318 16.9001 3.55171C16.1402 3.66026 15.3444 3.83335 14.7125 4.1327C14.1174 4.41454 13.3333 4.98191 13.3333 5.99997H15.3333C15.3333 6.18471 15.174 6.12708 15.5686 5.94018C15.9262 5.77079 16.4846 5.63138 17.183 5.53161C18.5603 5.33485 20.1577 5.33333 20.9999 5.33333V3.33333ZM27.6665 25.3496C28.6127 25.0261 28.6127 25.0259 28.6126 25.0257C28.6126 25.0256 28.6125 25.0254 28.6124 25.0252C28.6123 25.0248 28.6121 25.0243 28.6119 25.0237C28.6115 25.0225 28.611 25.021 28.6103 25.0192C28.6091 25.0155 28.6073 25.0104 28.6051 25.0039C28.6006 24.991 28.5942 24.9728 28.5859 24.9494C28.5693 24.9027 28.5451 24.8356 28.5135 24.7504C28.4504 24.5801 28.3577 24.3373 28.2372 24.0411C27.9966 23.4497 27.6428 22.6395 27.1894 21.7647C26.3085 20.065 24.9567 17.9301 23.2005 16.821L22.1326 18.5121C23.4032 19.3145 24.5513 21.021 25.4137 22.685C25.832 23.4921 26.1607 24.2442 26.3846 24.7947C26.4964 25.0694 26.5815 25.2925 26.6381 25.4453C26.6664 25.5217 26.6876 25.5805 26.7014 25.6192C26.7082 25.6386 26.7133 25.653 26.7164 25.662C26.718 25.6666 26.7191 25.6698 26.7198 25.6716C26.7201 25.6726 26.7203 25.6732 26.7204 25.6734C26.7204 25.6735 26.7204 25.6736 26.7204 25.6735C26.7204 25.6735 26.7204 25.6734 26.7204 25.6734C26.7203 25.6732 26.7203 25.6731 27.6665 25.3496ZM23.2005 16.821C20.7098 15.2482 18.7829 14.9999 15.9999 14.9999V16.9999C18.5841 16.9999 20.0852 17.2191 22.1326 18.5121L23.2005 16.821ZM15.9999 14.9999C13.2169 14.9999 11.29 15.2482 8.79934 16.821L9.86722 18.5121C11.9147 17.2191 13.4157 16.9999 15.9999 16.9999V14.9999ZM8.79934 16.821C7.04586 17.9283 5.68053 20.0602 4.78648 21.7592C4.32646 22.6333 3.9659 23.4431 3.72025 24.0341C3.5972 24.3302 3.50239 24.5728 3.4378 24.7429C3.40549 24.828 3.38071 24.8951 3.3637 24.9418C3.35519 24.9651 3.34862 24.9833 3.34403 24.9962C3.34173 25.0026 3.33992 25.0077 3.33862 25.0114C3.33796 25.0132 3.33743 25.0147 3.33702 25.0159C3.33682 25.0164 3.33665 25.0169 3.33651 25.0173C3.33644 25.0175 3.33636 25.0178 3.33632 25.0179C3.33625 25.0181 3.33618 25.0183 4.2797 25.3496C5.22321 25.6809 5.22316 25.6811 5.22312 25.6812C5.22311 25.6812 5.22308 25.6813 5.22307 25.6813C5.22305 25.6814 5.22307 25.6813 5.22311 25.6812C5.2232 25.681 5.22341 25.6804 5.22374 25.6794C5.2244 25.6776 5.22555 25.6743 5.22718 25.6698C5.23043 25.6607 5.23562 25.6463 5.24269 25.6269C5.25685 25.588 5.27857 25.5292 5.30759 25.4528C5.36567 25.2998 5.45284 25.0766 5.56709 24.8017C5.79605 24.2508 6.13135 23.4982 6.55638 22.6905C7.43241 21.0258 8.59388 19.3162 9.86722 18.5121L8.79934 16.821ZM1 24.3332C0.649184 25.2696 0.649248 25.2697 0.649317 25.2697C0.649348 25.2697 0.649422 25.2697 0.649484 25.2697C0.649606 25.2698 0.649751 25.2698 0.649918 25.2699C0.650252 25.27 0.650676 25.2702 0.651188 25.2704C0.652213 25.2708 0.653593 25.2713 0.655325 25.2719C0.658787 25.2732 0.663655 25.275 0.669893 25.2773C0.682369 25.2819 0.70033 25.2886 0.723505 25.297C0.769848 25.3139 0.83707 25.3383 0.922982 25.3687C1.09475 25.4296 1.34156 25.5152 1.64589 25.6156C2.25352 25.8161 3.09545 26.0771 4.03015 26.318L4.52924 24.3812C3.6488 24.1543 2.85088 23.9071 2.27245 23.7163C1.98374 23.6211 1.75097 23.5403 1.59141 23.4837C1.51166 23.4554 1.45028 23.4332 1.40945 23.4183C1.38903 23.4109 1.37375 23.4052 1.36389 23.4016C1.35896 23.3998 1.35538 23.3984 1.35319 23.3976C1.35209 23.3972 1.35135 23.3969 1.35095 23.3968C1.35075 23.3967 1.35064 23.3967 1.35062 23.3967C1.35061 23.3967 1.35062 23.3967 1.35065 23.3967C1.35067 23.3967 1.35071 23.3967 1.35072 23.3967C1.35076 23.3967 1.35082 23.3967 1 24.3332ZM4.03015 26.318C5.41856 26.6757 7.08505 27.0088 8.5063 26.9998L8.49361 24.9999C7.33765 25.0072 5.87379 24.7277 4.52924 24.3812L4.03015 26.318ZM23.4999 26.9998C24.8848 26.9998 26.5312 26.6711 27.9136 26.3186L27.4194 24.3806C26.0764 24.723 24.6271 24.9998 23.4999 24.9998V26.9998ZM27.9136 26.3186C28.8569 26.0781 29.7113 25.8175 30.3292 25.6173C30.6386 25.5171 30.89 25.4316 31.065 25.3709C31.1525 25.3405 31.221 25.3163 31.2681 25.2994C31.2917 25.291 31.31 25.2844 31.3227 25.2798C31.329 25.2775 31.3339 25.2758 31.3374 25.2745C31.3392 25.2738 31.3406 25.2733 31.3416 25.273C31.3421 25.2728 31.3425 25.2726 31.3428 25.2725C31.343 25.2724 31.3432 25.2724 31.3433 25.2724C31.3433 25.2723 31.3434 25.2723 31.3434 25.2723C31.3435 25.2723 31.3436 25.2722 30.9998 24.3332C30.6561 23.3941 30.6561 23.3941 30.6562 23.3941C30.6562 23.3941 30.6562 23.3941 30.6562 23.3941C30.6562 23.3941 30.6563 23.3941 30.6562 23.3941C30.6562 23.3941 30.6561 23.3941 30.6559 23.3942C30.6554 23.3944 30.6546 23.3946 30.6535 23.3951C30.6512 23.3959 30.6475 23.3972 30.6424 23.3991C30.6322 23.4028 30.6165 23.4084 30.5955 23.4159C30.5535 23.4309 30.4906 23.4532 30.4089 23.4816C30.2455 23.5383 30.0075 23.6192 29.7129 23.7146C29.1228 23.9058 28.3105 24.1534 27.4194 24.3806L27.9136 26.3186ZM16.8533 25.6761C18.3903 26.1661 21.3041 26.9998 23.4999 26.9998V24.9998C21.6534 24.9998 19.014 24.2657 17.4608 23.7706L16.8533 25.6761ZM14.5396 23.7705C13.0021 24.2604 10.3828 24.9879 8.49361 24.9999L8.5063 26.9998C10.7342 26.9857 13.6176 26.1633 15.1467 25.6762L14.5396 23.7705ZM17.4608 23.7706C16.5115 23.4679 15.4885 23.4683 14.5396 23.7705L15.1467 25.6762C15.7009 25.4996 16.2996 25.4995 16.8533 25.6761L17.4608 23.7706ZM16.9191 16.3938L21.919 4.72725L20.0807 3.93941L15.0808 15.606L16.9191 16.3938Z" fill="white"/>
</svg>
